<svg id="Layer_1" data-name="Layer 1" xmlns="http://www.w3.org/2000/svg" viewBox="0 0 512 512"><defs><style>.cls-1{fill:#00b8f1;}.cls-2{fill:#194ea0;}</style></defs><path class="cls-1" d="M80.07,240.86H137.5a8.74,8.74,0,0,0,8.74-8.74V212.71a6,6,0,0,0-12,0v16.15H83.33V178h25.46a6,6,0,0,0,0-12H80.07a8.76,8.76,0,0,0-8.74,8.74v57.35a8.75,8.75,0,0,0,8.74,8.74Z"/><path class="cls-1" d="M151.2,162.67a6,6,0,0,0-8.45.77h0l-28.62,34.39-9.19-7.43a6,6,0,0,0-7.65,9.24l.11.09,11,8.94a9.51,9.51,0,0,0,12.71-.57l.24-.23L152,171.12a6,6,0,0,0-.77-8.45Z"/><path class="cls-1" d="M442.1,170.22H208a6,6,0,0,0,0,12H442.1a6,6,0,0,0,0-12Z"/><path class="cls-1" d="M442.1,219.93H208a6,6,0,1,0,0,12H442.1a6,6,0,0,0,0-12Z"/><path class="cls-1" d="M140.24,333.88a6,6,0,0,0-6,6V356H83.33V305.2h25.46a6,6,0,1,0,0-12H80.07a8.76,8.76,0,0,0-8.74,8.74v57.35A8.75,8.75,0,0,0,80.07,368H137.5a8.74,8.74,0,0,0,8.74-8.74V339.88A6,6,0,0,0,140.24,333.88Z"/><path class="cls-1" d="M151.2,289.83a6,6,0,0,0-8.45.78h0L114.13,325,105,317.57a6,6,0,1,0-7.65,9.25l.1.08,11,8.93a9.51,9.51,0,0,0,12.71-.56l.24-.23L152,298.28a6,6,0,0,0-.77-8.45Z"/><path class="cls-1" d="M442.1,297.38H393.35a6,6,0,0,0,0,12H442.1a6,6,0,0,0,0-12Z"/><path class="cls-1" d="M284,297.38H208a6,6,0,0,0,0,12h76a6,6,0,0,0,0-12Z"/><path class="cls-1" d="M228.47,347.1H208a6,6,0,0,0,0,12h20.5a6,6,0,1,0,0-12Z"/><path class="cls-2" d="M472.36,17.73H39.64A27.67,27.67,0,0,0,12,45.37V404A27.65,27.65,0,0,0,39.59,431.6l228.84,1.62L280,478.77c0,.08.05.16.07.24a42.82,42.82,0,0,0,41.27,30.72H405a43.14,43.14,0,0,0,43.08-43.1v-33.7l24.44-1.33A27.66,27.66,0,0,0,500,404V45.37a27.67,27.67,0,0,0-27.64-27.64Zm-432.72,12H472.36A15.66,15.66,0,0,1,488,45.37v60.74H24V45.37A15.66,15.66,0,0,1,39.64,29.73ZM436.1,466.63A31.12,31.12,0,0,1,405,497.73H321.36a30.88,30.88,0,0,1-29.74-22.05l-12.7-49.91A212.33,212.33,0,0,0,267,391.47l-1-2.33a39.49,39.49,0,0,1,32.5,17.06l10.32,14.95v22.28a6,6,0,0,0,12,0h0V280.36a11.29,11.29,0,0,1,22.57,0V386.87a5.94,5.94,0,0,0,.26,1.73v24.46a6,6,0,1,0,12,0V379.55a9,9,0,0,1,17.9,0v6.82a20.82,20.82,0,0,0-.24,3.16v23.55a6,6,0,0,0,6,6h.24a6,6,0,0,0,6-6V387.42a9.63,9.63,0,0,1,19,2.09v29.77a6,6,0,0,0,12,0V398.91a9.76,9.76,0,1,1,19.52-.2v67.92Zm36.27-47H472l-23.94,1.3v-22a21.74,21.74,0,0,0-33.46-18.34,21.61,21.61,0,0,0-28.59-10.78,20.72,20.72,0,0,0-2.33,1.23,20.87,20.87,0,0,0-27.51-10.65l-.82.38V280.36a23.29,23.29,0,0,0-46.57,0V400l-.44-.64A51.47,51.47,0,0,0,266,377.14a12,12,0,0,0-11,17l1,2.27a200.81,200.81,0,0,1,9.18,24.83L39.63,419.6A15.65,15.65,0,0,1,24,404V118.11H488V404a15.65,15.65,0,0,1-15.64,15.63Z"/><path class="cls-2" d="M62.2,90.16a23,23,0,1,0-23-23A23,23,0,0,0,62.2,90.16Zm0-34a11,11,0,1,1-11,11A11,11,0,0,1,62.2,56.17Z"/><path class="cls-2" d="M122.83,90.16a23,23,0,1,0-23-23A23,23,0,0,0,122.83,90.16Zm0-34a11,11,0,1,1-11,11A11,11,0,0,1,122.83,56.17Z"/><path class="cls-2" d="M183.47,90.16a23,23,0,1,0-23-23A23,23,0,0,0,183.47,90.16Zm0-34a11,11,0,1,1-11,11A11,11,0,0,1,183.47,56.17Z"/><path class="cls-2" d="M273,72H467.93a6,6,0,0,0,0-12H273a6,6,0,0,0,0,12Z"/></svg>