<?xml version="1.0" encoding="UTF-8" standalone="no"?><!DOCTYPE svg PUBLIC "-//W3C//DTD SVG 1.1//EN" "http://www.w3.org/Graphics/SVG/1.1/DTD/svg11.dtd"><svg width="100%" height="100%" viewBox="0 0 417 303" version="1.1" xmlns="http://www.w3.org/2000/svg" xmlns:xlink="http://www.w3.org/1999/xlink" xml:space="preserve" xmlns:serif="http://www.serif.com/" style="fill-rule:evenodd;clip-rule:evenodd;stroke-linejoin:round;stroke-miterlimit:2;"><g><g><g><path d="M147.129,139.779l115.904,0c4.229,-0.523 7.361,-3.176 7.361,-6.26c0,-3.083 -3.132,-5.736 -7.361,-6.259l-115.904,-0c-0.496,-0.056 -1.018,-0.094 -1.514,-0.094c-4.882,0 -8.876,2.859 -8.876,6.353c-0,3.495 3.994,6.353 8.876,6.353c0.496,0 1.018,-0.037 1.514,-0.093Z" style="fill:#00b8f1;fill-rule:nonzero;"/></g><g><path d="M246.336,100.325c-0.068,-0.934 -0.102,-1.88 -0.102,-2.832c-0,-21.56 17.504,-39.064 39.064,-39.064c21.559,-0 39.063,17.504 39.063,39.064c0,0.952 -0.034,1.898 -0.102,2.832l-10.699,0c0.103,-0.931 0.155,-1.875 0.155,-2.832c0,-14.111 -14.307,-28.418 -28.417,-28.418c-14.111,-0 -28.419,14.307 -28.419,28.418c0,0.957 0.053,1.901 0.156,2.832l-10.699,0Z" style="fill:#ef3d2d;"/></g></g><g><g><path d="M112.204,146.454l-47.566,0c-2.839,0 -5.144,4.205 -5.144,7.045c0,2.839 2.305,7.044 5.144,7.044l49.536,-0l2.54,11.365l-48.603,-0c-9.874,-0 -17.987,-8.113 -17.987,-17.987c0,-9.874 8.113,-17.987 17.987,-17.987l41.714,-0l2.379,10.52Z" style="fill:#ef3d2d;fill-rule:nonzero;"/></g><g><path d="M300.771,146.454l45.665,0c2.839,0 5.143,4.205 5.143,7.045c0,2.839 -2.304,7.044 -5.143,7.044l-47.635,-0l-2.541,11.365l48.603,-0c9.874,-0 17.987,-8.113 17.987,-17.987c0,-9.874 -8.113,-17.987 -17.987,-17.987l-41.714,-0l-2.378,10.52Z" style="fill:#ef3d2d;fill-rule:nonzero;"/></g></g><g><path d="M318.114,244.8l-0,29.498c0.182,5.638 2.401,11.016 6.265,15.141c3.968,3.889 9.319,6.03 14.879,6.004l33.414,-0c11.46,-0 20.884,-9.424 20.884,-20.884l-0,-29.759c6.682,-0.287 12.008,-5.848 12.008,-12.53l-0,-29.238c-0.287,-5.299 -3.838,-9.867 -8.876,-11.486l0,-61.867c0.026,-16.603 -12.295,-30.83 -28.715,-33.153l-23.494,-65.523c-5.116,-13.678 -18.299,-22.763 -32.892,-22.711l-208.836,0c-14.201,0.444 -26.81,9.424 -31.848,22.711l-22.972,65.523c-16.367,2.427 -28.636,16.602 -28.715,33.153l0,61.867c-5.534,1.071 -9.658,5.848 -9.92,11.486l0,29.238c0.262,6.761 5.77,12.269 12.531,12.53l-0,30.02c-0,11.303 9.319,20.623 20.622,20.623l33.414,-0c11.46,-0 20.884,-9.424 20.884,-20.884l-0,-29.759l221.367,-0Zm57.409,36.693l-41.967,-0c-0.835,0.313 -1.775,0.313 -2.61,-0c-0.209,-0.783 -0.209,-1.566 -0,-2.35l-0,-34.343l49.015,-0l-0,33.038c0.026,0.157 0.026,0.287 0.026,0.444c-0,1.853 -1.54,3.394 -3.394,3.394c-0.365,-0 -0.731,-0.079 -1.07,-0.183Zm-291.975,-248.454c2.506,-6.892 9.11,-11.486 16.446,-11.486l215.489,-0c7.413,-0.052 14.096,4.568 16.706,11.486l21.145,62.704l-290.931,-0l21.145,-62.704Zm-50.643,158.246l-0,-66.88c-0,-8.641 7.022,-15.793 15.663,-15.924l317.557,0c9.033,0 16.446,7.414 16.446,16.446l0,66.358l-100.221,0l-14.879,-26.104c-1.436,-2.715 -4.255,-4.412 -7.31,-4.438l-111.205,0c-3.133,0.052 -6.004,1.723 -7.57,4.438l-14.619,26.104l-93.862,0Zm235.997,0l-127.475,0l7.309,-17.804l113.64,0l6.526,17.804Zm-189.405,90.208l-41.538,0.522c-2.01,-0 -3.655,-1.645 -3.655,-3.655l0,-33.56l48.587,-0l-0,33.038c-0,1.906 -1.488,3.524 -3.394,3.655Zm-55.823,-50.121l0,-27.348l368.462,-0l0,27.348l-368.462,0Z" style="fill:#194ea0;fill-rule:nonzero;"/></g></g></svg>