<svg id="Layer_1" data-name="Layer 1" xmlns="http://www.w3.org/2000/svg" viewBox="0 0 512 512"><defs><style>.cls-1{fill:#194ea0;}.cls-2{fill:#ef3d2d;}</style></defs><path class="cls-1" d="M26.57,486.14a7.23,7.23,0,0,0,7.22,7.22H487.36a7.22,7.22,0,0,0,7.21-7.22V459.68c0-44.48-33.18-82.76-77.19-89l-3.66-.53,2.44-2.77a49,49,0,0,0,12.17-32.3V302A49.41,49.41,0,0,0,408,262.13l-1.33-1,.69-1.49a31.13,31.13,0,1,0-56.41,0l.69,1.49-1.33,1A49.39,49.39,0,0,0,329.94,302v33.11a49,49,0,0,0,12.23,32.36l2.43,2.76-3.64.53a89,89,0,0,0-31.2,10.7l-3.06,1.74.08-3.94c0-.19,0-.37,0-.56v-8.07a46.24,46.24,0,0,0-92.48,0v8.07c0,.18,0,.36,0,.54l.08,3.93-3.06-1.73a89,89,0,0,0-32-10.79l-4.05-.56,2.92-2.86A51.68,51.68,0,0,0,193.94,330V302.18a52.2,52.2,0,0,0-104.4,0V330a51.67,51.67,0,0,0,15.71,37.22l2.92,2.85-4,.56a90.27,90.27,0,0,0-77.56,89.08ZM379.14,229.82a16.71,16.71,0,0,1,16.69,16.69,16.44,16.44,0,0,1-1.49,6.85l-.7,1.55-1.64-.44a49.29,49.29,0,0,0-25.74,0l-1.65.45-.7-1.55a16.7,16.7,0,0,1,15.23-23.55ZM344.37,302a34.77,34.77,0,0,1,69.53,0v3.43H344.37Zm0,33.11V319.81H413.9v15.25a34.78,34.78,0,0,1-34.69,34.69h-.15A34.78,34.78,0,0,1,344.37,335.06Zm-46.2,74a75.44,75.44,0,0,1,56-24.86h50.47a75.59,75.59,0,0,1,75.5,75.5v19.24H334.32V461.87A52.43,52.43,0,0,0,299,412.27l-2.86-1Zm-69.41-38.46a31.8,31.8,0,0,1,63.6,0v8.07a31.8,31.8,0,0,1-63.6,0ZM229.87,425l14.74-3,.53.18a46.35,46.35,0,0,0,31.05-.07l.54-.19,14.4,3.06a38,38,0,0,1,28.75,36.9v17.05H201.23V461.87A38,38,0,0,1,229.87,425ZM104,301.58a37.75,37.75,0,0,1,73.42-11.75l.14.4,0,.42a14.23,14.23,0,0,1-14.1,13H104ZM104,330V318.05h59.44a28.17,28.17,0,0,0,13.16-3.22l2.92-1.52V330A37.76,37.76,0,0,1,104,330ZM41,459.68a75.59,75.59,0,0,1,75.5-75.5H167A75.43,75.43,0,0,1,223,409l2,2.24-2.86,1a52.43,52.43,0,0,0-35.34,49.61v17.05H41Z"/><path class="cls-2" d="M260.57,297.46a7.23,7.23,0,0,0,7.22-7.22V183.86l2.28.31A68,68,0,0,1,307.27,202a7.23,7.23,0,0,0,9.86,0,68.34,68.34,0,0,1,93.39,0,7.29,7.29,0,0,0,7.8,1.35,7.2,7.2,0,0,0,4.34-6.62,160.4,160.4,0,0,0-17.39-73.12,7.22,7.22,0,0,0-12.88,6.52A146,146,0,0,1,407,177.49l.5,3.93-3.46-1.93a82.84,82.84,0,0,0-81.49.61l-2.89,1.66-.11-3.33c-1.16-36.07-6.48-68.81-15.39-94.69-3.83-11.14-8.19-20.56-13-28l-2.64-4.11,4.76,1.08A146.45,146.45,0,0,1,339.72,72a7.22,7.22,0,0,0,7.75-12.19,162,162,0,0,0-77.79-25l-1.89-.11V32.58a7.22,7.22,0,1,0-14.43,0v2.17l-1.89.1a162.1,162.1,0,0,0-153,161.83,7.23,7.23,0,0,0,4.35,6.63h0a7.23,7.23,0,0,0,7.8-1.35A68.33,68.33,0,0,1,204,202a7.23,7.23,0,0,0,9.86,0,68,68,0,0,1,37.2-17.78l2.28-.31V290.24A7.22,7.22,0,0,0,260.57,297.46Zm-59-119-.11,3.33-2.89-1.66a82.84,82.84,0,0,0-81.47-.62l-3.47,1.94.51-3.94A148.14,148.14,0,0,1,227.82,52.7l4.76-1.09-2.64,4.12c-4.77,7.44-9.13,16.86-13,28C208.07,109.62,202.75,142.37,201.59,178.43ZM219,180.25l-3.12,1.82.11-3.61C218.5,101,241.06,49,260.57,49s42.08,52,44.56,129.44l.11,3.61-3.12-1.82a82.84,82.84,0,0,0-83.09,0Z"/><path class="cls-2" d="M375.31,85.44a7.2,7.2,0,1,0,5.11,2.11A7.26,7.26,0,0,0,375.31,85.44Z"/></svg>