<svg id="Layer_1" data-name="Layer 1" xmlns="http://www.w3.org/2000/svg" viewBox="0 0 512 512"><defs><style>.cls-1{fill:#00b8f1;}.cls-2{fill:#194ea0;}</style></defs><path class="cls-1" d="M257.47,67.36a8,8,0,0,0,8-8v-32a8,8,0,1,0-16,0v32A8,8,0,0,0,257.47,67.36Z"/><path class="cls-1" d="M158.54,56l16,27.71a8,8,0,1,0,13.91-7.91l0-.09L172.4,48a8,8,0,0,0-13.91,7.91Z"/><path class="cls-1" d="M94,126.23l.1.06,27.7,16a8,8,0,0,0,8.09-13.81l-.09,0-27.7-16a8,8,0,0,0-8.1,13.8Z"/><path class="cls-1" d="M113.47,211.36a8,8,0,0,0-8-8h-32a8,8,0,0,0,0,16h32A8,8,0,0,0,113.47,211.36Z"/><path class="cls-1" d="M121.92,280.38l-.09.05-27.7,16a8,8,0,1,0,7.9,13.91l.1,0,27.7-16a8,8,0,0,0-7.91-13.91Z"/><path class="cls-1" d="M420.91,296.48l-.1-.05-27.7-16a8,8,0,1,0-8.09,13.8l.09.06,27.7,16a8,8,0,0,0,8.1-13.81Z"/><path class="cls-1" d="M441.47,203.36h-32a8,8,0,0,0,0,16h32a8,8,0,0,0,0-16Z"/><path class="cls-1" d="M389.12,143.36a8,8,0,0,0,4-1.07l27.7-16a8,8,0,0,0-7.91-13.91l-.09.05-27.7,16a8,8,0,0,0,4,14.93Z"/><path class="cls-1" d="M329.46,86.65h0a8,8,0,0,0,10.93-2.93h0L356.4,56a8,8,0,0,0-13.8-8.09l-.06.09-16,27.71A8,8,0,0,0,329.46,86.65Z"/><path class="cls-1" d="M273.47,339.36a8,8,0,0,0,8-8v-88h16a32,32,0,1,0-32-32v16h-16v-16a32,32,0,1,0-32,32h16v88a8,8,0,0,0,16,0v-88h16v88A8,8,0,0,0,273.47,339.36Zm8-128a16,16,0,1,1,16,16h-16Zm-48,16h-16a16,16,0,1,1,16-16Z"/><path class="cls-2" d="M263.69,83.51A128,128,0,0,0,176.33,310.3a23.85,23.85,0,0,1,9.14,18.3v18.76a24,24,0,0,0,16,22.53v9.47a23.89,23.89,0,0,0,6.24,16,23.63,23.63,0,0,0,0,32,23.9,23.9,0,0,0,17.76,40,7.81,7.81,0,0,0,6.58-12.3,9.09,9.09,0,0,0-.9-1.38,8.37,8.37,0,0,0-2.22-1.46c-.24-.12-.47-.21-.71-.31a8.06,8.06,0,0,0-2.52-.5c-.08,0-.15-.05-.23-.05a8,8,0,0,1,0-16h32a8,8,0,0,0,0-16h-32a8,8,0,0,1,0-16h32a8,8,0,0,0,0-16h-32a8,8,0,0,1-8-8v-8h40a8,8,0,0,0,0-16h-48a8,8,0,0,1-8-8V328.6a39.77,39.77,0,0,0-15-30.68,112,112,0,0,1,76.46-198.4A113.28,113.28,0,0,1,369.47,210.68a111.32,111.32,0,0,1-41.56,87.7,39.66,39.66,0,0,0-14.44,31.15v17.83a8,8,0,0,1-8,8h-24a8,8,0,0,0,0,16h16v8a8,8,0,0,1-8,8h-8a8,8,0,0,0,0,16h8a8,8,0,0,1,0,16h-8a8,8,0,0,0,0,16h8a8,8,0,0,1,0,16h-40a8,8,0,0,0,0,16H280.1a24,24,0,0,1-40.57,7.94,8,8,0,0,0-11.95,10.64,39.91,39.91,0,0,0,69.21-19.85,23.76,23.76,0,0,0,10.44-38.73,23.63,23.63,0,0,0,0-32,23.84,23.84,0,0,0,6.24-16v-9.47a24,24,0,0,0,16-22.53V329.53a24,24,0,0,1,8.49-18.7,127.25,127.25,0,0,0,47.51-100.27A129.5,129.5,0,0,0,263.69,83.51Z"/></svg>