<?xml version="1.0" encoding="UTF-8" standalone="no"?>
<!DOCTYPE svg PUBLIC "-//W3C//DTD SVG 1.1//EN" "http://www.w3.org/Graphics/SVG/1.1/DTD/svg11.dtd">
<svg width="100%" height="100%" viewBox="0 0 20 20" version="1.1" xmlns="http://www.w3.org/2000/svg" xmlns:xlink="http://www.w3.org/1999/xlink" xml:space="preserve" xmlns:serif="http://www.serif.com/" style="fill-rule:evenodd;clip-rule:evenodd;stroke-linejoin:round;stroke-miterlimit:2;">
    <g id="Path_60" transform="matrix(1.89958e-16,-3.10224,3.10224,1.89958e-16,4.30894,19.9892)">
        <path d="M3.22,3.67C3.1,3.67 2.986,3.623 2.901,3.538L0.132,0.769C0.047,0.684 0,0.57 0,0.45C0,0.203 0.204,-0.001 0.451,-0.001C0.571,-0.001 0.685,0.046 0.77,0.131L3.22,2.581L5.67,0.131C5.755,0.046 5.869,-0.001 5.989,-0.001C6.236,-0.001 6.44,0.203 6.44,0.45C6.44,0.57 6.393,0.684 6.308,0.769L3.539,3.538C3.454,3.623 3.34,3.67 3.22,3.67Z" style="fill:rgb(27,78,161);fill-rule:nonzero;"/>
    </g>
</svg>
