<?xml version="1.0" encoding="UTF-8" standalone="no"?>
<!DOCTYPE svg PUBLIC "-//W3C//DTD SVG 1.1//EN" "http://www.w3.org/Graphics/SVG/1.1/DTD/svg11.dtd">
<svg width="100%" height="100%" viewBox="0 0 118 92" version="1.1" xmlns="http://www.w3.org/2000/svg" xmlns:xlink="http://www.w3.org/1999/xlink" xml:space="preserve" xmlns:serif="http://www.serif.com/" style="fill-rule:evenodd;clip-rule:evenodd;stroke-linejoin:round;stroke-miterlimit:2;">
    <path d="M62.699,83.14C62.662,83.125 62.624,83.109 62.587,83.091L55.426,90.252C54.73,90.948 53.601,90.948 52.905,90.252L10.832,48.179C5.224,42.57 2.333,34.8 2.914,26.891C3.492,18.981 7.485,11.716 13.85,6.985C20.215,2.254 28.324,0.527 36.065,2.253C43.806,3.978 50.412,8.986 54.165,15.973C58.255,8.378 65.696,3.163 74.23,1.906C82.765,0.651 91.392,3.501 97.497,9.597C103.335,15.457 106.207,23.635 105.329,31.843L100.277,27.307C100.906,27.421 100.455,27.706 100.91,28.182C100.719,22.142 98.243,16.399 93.978,12.116C88.221,6.358 80.913,4.957 72.971,6.753C65.029,8.55 58.565,13.296 55.847,20.972C55.287,22.556 53.044,22.556 52.484,20.972C50.076,14.176 44.709,9.846 37.899,7.486C31.088,5.125 24.573,4.99 18.478,8.836C12.38,12.681 8.364,19.091 7.561,26.255C6.76,33.418 9.259,40.559 14.353,45.658L54.165,85.468L58.85,80.977C58.497,80.765 58.699,80.797 58.558,80.359L62.699,83.14Z" style="fill:rgb(25,78,160);fill-rule:nonzero;"/>
    <path d="M86.272,62.367C85.287,62.367 84.489,63.165 84.489,64.149C84.501,66.129 83.724,68.031 82.33,69.434C80.936,70.838 79.038,71.627 77.059,71.627C75.08,71.627 73.183,70.838 71.788,69.434C70.394,68.031 69.615,66.129 69.628,64.149C69.628,61.772 66.062,61.772 66.062,64.149C66.048,67.076 67.2,69.887 69.264,71.961C71.327,74.037 74.133,75.202 77.059,75.202C79.986,75.202 82.791,74.037 84.854,71.961C86.918,69.887 88.07,67.076 88.054,64.149C88.054,63.165 87.257,62.367 86.272,62.367ZM92.299,49.138C90.289,49.138 88.477,50.348 87.708,52.206C86.939,54.062 87.364,56.2 88.786,57.62C90.207,59.042 92.344,59.467 94.201,58.697C96.058,57.928 97.268,56.116 97.268,54.106C97.265,51.364 95.042,49.141 92.299,49.138ZM61.819,48.087C59.809,48.087 57.997,49.298 57.228,51.155C56.458,53.012 56.884,55.149 58.304,56.571C59.727,57.992 61.864,58.417 63.721,57.648C65.578,56.879 66.788,55.067 66.788,53.057C66.785,50.314 64.563,48.091 61.819,48.087ZM92.299,55.511C91.049,55.509 90.422,53.999 91.307,53.115C92.191,52.23 93.703,52.857 93.703,54.107C93.701,54.881 93.073,55.509 92.299,55.511ZM61.819,54.46C60.568,54.46 59.942,52.948 60.827,52.065C61.711,51.18 63.222,51.806 63.222,53.057C63.221,53.832 62.594,54.459 61.819,54.46ZM72.194,35.057C72.89,35.753 74.02,35.753 74.716,35.057L80.948,28.825C82.629,27.145 80.106,24.622 78.425,26.304L72.194,32.535C71.497,33.231 71.497,34.361 72.194,35.057ZM64.466,35.579L64.465,35.579L64.467,35.579L64.466,35.579C64.939,35.58 65.392,35.391 65.727,35.057L71.958,28.825C73.639,27.145 71.118,24.624 69.438,26.304L63.205,32.535C62.084,33.658 62.879,35.578 64.466,35.579Z" style="fill:rgb(25,78,160);fill-rule:nonzero;"/>
    <path d="M42.939,41.891C47.121,26.944 60.852,15.969 77.125,15.969C93.624,15.969 107.509,27.25 111.48,42.513C114.913,44.09 117.3,47.559 117.3,51.58C117.3,55.63 114.881,59.118 111.41,60.679C107.347,75.809 93.528,86.959 77.125,86.959C60.942,86.959 47.273,76.105 43.009,61.287C38.608,60.251 35.328,56.296 35.328,51.58C35.328,46.891 38.573,42.953 42.939,41.891ZM107.551,44.523C104.392,30.639 91.961,20.262 77.125,20.262C62.336,20.262 49.936,30.574 46.73,44.391L46.645,44.391C42.741,44.391 39.572,47.561 39.572,51.464C39.572,55.367 42.741,58.537 46.645,58.537L46.73,58.537C49.936,72.354 62.336,82.666 77.125,82.666C91.961,82.666 104.392,72.289 107.551,58.405C110.804,57.77 113.262,54.902 113.262,51.464C113.262,48.026 110.804,45.158 107.551,44.523Z" style="fill:rgb(239,61,45);"/>
</svg>
