<?xml version="1.0" encoding="UTF-8" standalone="no"?><!DOCTYPE svg PUBLIC "-//W3C//DTD SVG 1.1//EN" "http://www.w3.org/Graphics/SVG/1.1/DTD/svg11.dtd"><svg width="100%" height="100%" viewBox="0 0 448 384" version="1.1" xmlns="http://www.w3.org/2000/svg" xmlns:xlink="http://www.w3.org/1999/xlink" xml:space="preserve" xmlns:serif="http://www.serif.com/" style="fill-rule:evenodd;clip-rule:evenodd;stroke-linejoin:round;stroke-miterlimit:2;"><g><g><g><path d="M223.485,369.734c-3.224,-0 -6.447,-1.23 -8.903,-3.69l-89.734,-89.734c-11.125,-11.682 2.472,-24.428 11.788,-14.491l87.595,89.604l84.348,-86.067c12.973,-14.063 24.285,1.58 13.543,10.954l-89.735,89.734c-2.459,2.46 -5.679,3.69 -8.902,3.69Z" style="fill:#194ea0;fill-rule:nonzero;"/></g><path d="M66.413,221.041l27.002,-0.004l32.877,-98.615l34.555,103.662l27.271,-88.605l28.983,72.495l48.045,-109.81l37.595,97.86l134.973,0c0.157,-0.011 0.314,-0.015 0.471,-0.015c3.828,0 6.978,3.15 6.978,6.979c0,3.828 -3.15,6.974 -6.978,6.974c-0.157,0 -0.314,-0.003 -0.471,-0.015l-143.595,0l-31.226,-74.933l-46.432,108.967l-26.699,-66.777l-28.435,92.454l-35.131,-105.261l-22.832,68.517l-88.591,-0c-0.157,0.011 -0.314,0.019 -0.471,0.019c-3.829,-0.004 -6.979,-3.15 -6.979,-6.978c0,-3.829 3.15,-6.979 6.979,-6.979c0.157,-0 0.314,0.004 0.471,0.015l31.934,0l-0.08,0l19.786,0.046l-0,0.004Z" style="fill:#ef3d2d;fill-rule:nonzero;"/><g><path d="M66.131,174.709c7.045,11.791 -5.464,25.371 -16.845,9.715c-16.63,-37.876 -14.723,-80.822 14.491,-110.035c38.825,-38.829 102.011,-38.829 140.845,0l18.863,18.867l18.863,-18.863c38.829,-38.829 102.965,-41.263 141.803,-2.425c29.213,29.209 32.399,69.945 14.076,111.697c-6.18,15.634 -26.581,6.637 -17.38,-8.96c12.428,-28.302 14.573,-65.915 -7.249,-87.732c-29.008,-29.008 -75.152,-33.171 -110.514,-5.436l-30.692,26.431c-4.92,4.919 -12.89,4.919 -17.805,-0l-29.275,-28.051c-36.205,-27.316 -89.271,-16.438 -112.345,9.44c-20.534,23.03 -19.264,57.05 -6.836,85.352Z" style="fill:#194ea0;fill-rule:nonzero;"/></g></g></g></svg>