<?xml version="1.0" encoding="utf-8"?>
<!-- Generator: Adobe Illustrator 21.0.0, SVG Export Plug-In . SVG Version: 6.00 Build 0)  -->
<svg version="1.1" id="Layer_1" xmlns="http://www.w3.org/2000/svg" xmlns:xlink="http://www.w3.org/1999/xlink" x="0px" y="0px"
	 viewBox="0 0 595 232.1" style="enable-background:new 0 0 595 232.1;" xml:space="preserve">
<style type="text/css">
	.st0{fill:#F2F3F4;}
	.st1{fill:#FBFCFE;}
</style>
<g>
	<path class="st0" d="M0.9,198.5c0-58.5,0-117.1,0-175.6c0.8-0.5,1.6-0.1,2.3,0.2c17.1,5.7,34.4,10.6,51.9,14.8
		c20.3,4.9,82,15.3,92.3,16.7c10.9,1.4,74,7.1,81.5,7.6c9.1,0.5,40.2,1.8,46.6,2.1c13.6,0.5,27.2,0.8,40.8,0.6
		c20-0.2,62.7-4.7,73.8-6.3c17.3-2.4,34.4-5.6,51.4-9.3c26-5.6,51.6-12.5,77-20.5c19.6-6.1,39.1-13,58.2-20.5c5.1-2,10.3-4,15.3-6.3
		c1-0.5,2.1-1,3.3-0.7c0.3,0.5,0.2,1,0.2,1.5c0,65.5,0,131,0,196.5c-0.2,1.3-1.2,1.9-2.2,2.5c-4.9,3.4-37.6,15.6-48.9,18.2
		c-15.5,3.6-31.1,6.1-46.9,8.1c-9.1,1.1-18.3,2-27.4,2.7c-11.3,0.9-22.7,1.4-34.1,1.5c-13,0.2-26,0.1-39,0.1c-6,0-11.9,0-17.9-0.3
		c-8-0.4-16-1-24.1-1.5c-14-1-27.9-2.6-41.8-4.3c-11.6-1.5-23.2-3.4-34.8-5.4c-17.8-3.1-35.5-7.3-53.2-11.1
		c-20.6-4.4-41.3-7.9-62.2-10.4c-9.1-1.1-42.7-4-50.3-4.5c-14.6-0.8-84.3-1.6-109.9,3.9C2.2,198.8,1.5,199,0.9,198.5z"/>
	<path class="st1" d="M595.6,199.5c-0.1,0-0.2,0-0.3,0c0-65.4,0-130.8,0-196.2c0-0.7,0.3-1.5-0.3-2.1c0-0.1,0-0.2,0-0.3
		c0.2,0.1,0.7-0.3,0.7,0.3c0,0.4,0,0.8,0,1.2C595.6,68.1,595.6,133.8,595.6,199.5z"/>
</g>
</svg>
