<?xml version="1.0" encoding="UTF-8" standalone="no"?><!DOCTYPE svg PUBLIC "-//W3C//DTD SVG 1.1//EN" "http://www.w3.org/Graphics/SVG/1.1/DTD/svg11.dtd"><svg width="100%" height="100%" viewBox="0 0 465 348" version="1.1" xmlns="http://www.w3.org/2000/svg" xmlns:xlink="http://www.w3.org/1999/xlink" xml:space="preserve" xmlns:serif="http://www.serif.com/" style="fill-rule:evenodd;clip-rule:evenodd;stroke-linejoin:round;stroke-miterlimit:2;"><g><g><path d="M198.079,132.358l-20.917,0l-0,-20.605c-0,-3.624 -2.985,-6.562 -6.662,-6.562l-38.065,-0c-3.677,-0 -6.661,2.938 -6.661,6.562l-0,20.605l-20.917,0c-3.677,0 -6.661,2.939 -6.661,6.562l-0,37.499c-0,3.622 2.984,6.562 6.661,6.562l20.917,-0l-0,20.605c-0,3.623 2.984,6.563 6.661,6.563l38.065,-0c3.677,-0 6.662,-2.94 6.662,-6.563l-0,-20.605l20.917,-0c3.677,-0 6.661,-2.94 6.661,-6.562l0,-37.499c0,-3.623 -2.984,-6.562 -6.661,-6.562Zm-4.721,38.454l-21.887,0c-3.677,0 -6.662,2.939 -6.662,6.563l0,21.561l-26.683,0l0,-21.561c0,-3.624 -2.984,-6.563 -6.661,-6.563l-21.887,0l-0,-26.285l21.887,-0c3.677,-0 6.661,-2.94 6.661,-6.563l0,-21.561l26.683,-0l0,21.561c0,3.623 2.985,6.563 6.662,6.563l21.887,-0l0,26.285Z" style="fill:#ef3d2d;fill-rule:nonzero;"/><path d="M336.718,174.636l-22.839,0c-8.882,0 -8.882,13.125 -0,13.125l22.839,-0c8.881,-0 8.881,-13.125 -0,-13.125Z" style="fill:#ef3d2d;fill-rule:nonzero;"/><g><path d="M66.077,284.787l-51.643,0c-3.677,0 -6.662,-2.939 -6.662,-6.561l0,-219.166c0,-3.622 2.985,-6.561 6.662,-6.561l274.052,-0c3.679,-0 6.662,2.939 6.662,6.561l0,16.181l11.801,0c0.511,-12.553 10.988,-22.469 23.742,-22.469c12.753,0 23.231,9.916 23.741,22.469l17.09,0c2.839,0 5.367,1.772 6.295,4.415l30.024,72.62l46.348,15.934c2.771,0.861 4.654,3.394 4.654,6.255l0,103.761c0,3.622 -2.985,6.561 -6.661,6.561l-17.534,0l0,-14.08l11.843,-0l-1.427,-91.244l-47.968,-16.187l-101.932,-0l-0,107.431l6.15,-0l0,14.08l-102.921,0l0,-13.124l83.448,-0l0,-205.084l-260.746,0l-0,205.084l49.484,-0l0,0.102l3.153,0l0,13.073l-7.655,-0l0,-0.051Zm229.087,-198.329l71.61,0.02l27.732,65.112l-98.606,-0.33l-0.736,-64.802Zm35.412,-23.246c6.677,0 12.097,5.476 12.097,12.221c0.088,0.028 -24.01,-0.09 -24.195,0c0,-6.745 5.421,-12.221 12.098,-12.221Z" style="fill:#1b4ea1;"/></g><g><path d="M136.082,230.195c30.347,0 54.984,24.271 54.984,54.166c0,29.895 -24.637,54.165 -54.984,54.165c-30.347,-0 -54.985,-24.27 -54.985,-54.165c0,-29.895 24.638,-54.166 54.985,-54.166Zm-0,15.116c19.735,-0 39.64,19.608 39.64,39.05c0,19.441 -19.905,39.05 -39.64,39.05c-19.735,0 -39.641,-19.609 -39.641,-39.05c0,-19.442 19.906,-39.05 39.641,-39.05Z" style="fill:#1b4ea1;"/></g><g><path d="M370.123,230.195c30.347,0 54.985,24.271 54.985,54.166c0,29.895 -24.638,54.165 -54.985,54.165c-30.346,-0 -54.984,-24.27 -54.984,-54.165c-0,-29.895 24.638,-54.166 54.984,-54.166Zm0,15.116c19.736,-0 39.641,19.608 39.641,39.05c-0,19.441 -19.905,39.05 -39.641,39.05c-19.735,0 -39.64,-19.609 -39.64,-39.05c0,-19.442 19.905,-39.05 39.64,-39.05Z" style="fill:#1b4ea1;"/></g></g><g><path d="M329.412,33.447l0.378,-0c2.485,-0 4.536,-2.011 4.536,-4.469l0,-18.062c0,-2.551 -2.136,-4.655 -4.725,-4.655c-2.59,-0 -4.726,2.104 -4.726,4.655l0,18.062c0,2.458 2.051,4.469 4.537,4.469Z" style="fill:#ef3d2d;fill-rule:nonzero;"/></g><g><path d="M290.588,23.092l9.451,15.641c0.813,1.406 2.335,2.272 3.97,2.272c2.504,-0 4.574,-2.039 4.574,-4.506c0,-0.782 -0.208,-1.555 -0.605,-2.235l-9.451,-15.548c-0.813,-1.406 -2.334,-2.272 -3.969,-2.272c-2.505,0 -4.574,2.039 -4.574,4.507c-0,0.782 0.208,1.554 0.604,2.234l0,-0.093Z" style="fill:#ef3d2d;fill-rule:nonzero;"/></g><g><path d="M354.367,38.824c2.183,1.192 4.971,0.447 6.238,-1.676l9.45,-15.641c0.397,-0.68 0.605,-1.453 0.605,-2.235c0,-2.467 -2.069,-4.506 -4.574,-4.506c-1.635,0 -3.157,0.866 -3.969,2.272l-9.451,15.548c-1.219,2.179 -0.463,4.953 1.701,6.238Z" style="fill:#ef3d2d;fill-rule:nonzero;"/></g></g></svg>