<?xml version="1.0" encoding="UTF-8" standalone="no"?>
<!DOCTYPE svg PUBLIC "-//W3C//DTD SVG 1.1//EN" "http://www.w3.org/Graphics/SVG/1.1/DTD/svg11.dtd">
<svg width="100%" height="100%" viewBox="0 0 2000 339" version="1.1" xmlns="http://www.w3.org/2000/svg" xmlns:xlink="http://www.w3.org/1999/xlink" xml:space="preserve" xmlns:serif="http://www.serif.com/" style="fill-rule:evenodd;clip-rule:evenodd;stroke-linejoin:round;stroke-miterlimit:2;">
    <g transform="matrix(0.00589395,0,0,0.00589395,65.7223,13.08)">
        <path d="M35474.7,6209.38C34449.9,10429.1 30200,13051.3 26613.3,14829.6C29597.2,21490.8 31285.1,29236.9 30893.3,37887.2C30833,39454.5 28662.8,39846.4 28090.2,38399.6C26372.2,34210 24292.4,30653.4 21971.6,26463.8C15943.4,29206.6 5273.57,30894.5 420.87,26162.4C-573.784,25197.9 330.453,23479.9 1716.88,23721C7684.76,24806.1 14858.3,24142.9 14677.5,17391.4C10337.2,15794 4188.48,16004.9 1053.88,13171.7C-1.08,12207.1 903.134,10489.1 2319.8,10700.1C13682.9,12478.4 25799.5,9705.49 33274.3,4641.81C34329.3,3948.59 35776,4943.24 35474.6,6209.16L35474.7,6209.25L35474.7,6209.32L35474.7,6209.38ZM244834,34240.3C245467,34843.1 245436,35867.9 244743,36440.5C242272,38429.8 239619,39243.6 236515,39243.6C229402,39243.6 223494,34963.7 223494,26283.1C223494,17602.6 229402,13322.5 236515,13322.5C239469,13322.5 241850,14045.9 244140,15854.4C244834,16396.9 244924,17421.7 244321,18054.7L242453,20013.8C241940,20556.3 241156,20586.5 240523,20194.6C239288,19411 237931,19019.1 236605,19019.1C232536,19019.1 229552,22003.1 229552,26283.1C229552,30954.9 232717,33426.5 236515,33426.5C238082,33426.5 239649,33064.8 240976,32160.6C241548,31768.7 242332,31829 242844,32311.2L244834,34240.3L244834,34240.3L244834,34240.3ZM272472,26253C272472,33305.9 267650,39002.6 259723,39002.6C251766,39002.6 247004,33305.9 247004,26253C247004,19260.2 251856,13503.4 259663,13503.4C267469,13503.4 272473,19260.2 272473,26253L272472,26253ZM221685,35325.3C221685,37691.4 219899,38874.4 218113,38874.4C216327,38874.4 214541,37691.4 214541,35325.3C214541,30623.4 221685,30623.4 221685,35325.3ZM293420,38460.1C292607,38460.1 291944,37797 291944,36983.2L291944,25348.9C291944,22123.8 290256,19200.1 286940,19200.1C283655,19200.1 281726,22123.8 281726,25348.9L281726,36983.2C281726,37797 281063,38460.1 280249,38460.1L277144,38460.1C276331,38460.1 275668,37797 275668,36983.2L275668,15402.4C275668,14588.6 276331,13925.4 277144,13925.4L280008,13925.4C280731,13925.4 281364,14468 281485,15191.4L281756,16909.4C283052,14437.9 285885,13533.7 288206,13533.7C291130,13533.7 294053,14739.2 295470,18115C297640,14648.8 300473,13654.2 303668,13654.2C310631,13654.2 314037,17934.2 314037,25288.6L314037,36983.2C314037,37797 313374,38460.1 312560,38460.1L309455,38460.1C308642,38460.1 307978,37797 307978,36983.2L307978,25258.4C307978,22033.3 306652,19290.5 303367,19290.5C300082,19290.5 298062,22123.7 298062,25348.8L298062,36983.1C298062,37796.9 297399,38460 296585,38460L293420,38460L293420,38460L293420,38459.9L293420,38460.1ZM253062,26253C253062,29990.5 255292,33456.6 259723,33456.6C264154,33456.6 266384,29990.5 266384,26253C266384,22575.8 263792,18989 259723,18989C255352,18989 253062,22575.8 253062,26253Z" style="fill:rgb(39,182,234);"/>
    </g>
    <g transform="matrix(0.00589395,0,0,0.00589395,65.7223,13.08)">
        <path d="M163211,13654.1C163814,13654.1 164296,14136.4 164296,14739.2L164296,43252.4C164296,49280.5 161674,53168.7 156218,53168.7C154772,53168.7 153234,52837.1 151758,52083.6C151215,51812.3 151004,51179.4 151245,50636.8L152571,47803.6C152812,47291.2 153385,47050.1 153928,47230.9C154621,47472 155314,47592.6 155917,47562.5C157876,47472 158328,45934.9 158328,43282.5L158328,14769.3C158328,14166.5 158810,13684.2 159413,13684.2L163211,13684.2L163211,13654.1L163211,13654.1L163211,13654.1L163211,13654.1L163211,13654.1ZM218489,15281.7L204594,47562.6C204414,47954.5 204022,48225.7 203600,48225.7L199380,48225.7C198596,48225.7 198054,47411.9 198385,46688.5L202274,37676.5L202274,37646.3L193171,15251.7C192870,14528.3 193412,13744.6 194196,13744.6L198807,13744.6C199259,13744.6 199681,14046 199832,14468L203268,24233.6L205559,30955C205559,30985.2 205619,30985.2 205649,30955L208121,24354.2L212280,14377.6C212461,13985.8 212853,13714.5 213275,13714.5L217555,13714.5C218278,13744.6 218791,14558.4 218489,15281.8L218489,15281.8L218489,15281.7L218489,15281.7L218489,15281.8L218489,15281.7ZM30862.3,37887.3C30771.9,39454.7 28631.9,39846.5 28059.2,38399.7C27215.2,36320 24653.3,31166 21940.6,26463.9C19167.6,21701.7 16967.4,19380.8 14646.5,17391.5C10306.2,15794.1 4157.51,16005 1022.91,13171.8C-32,12207.3 872.231,10489.2 2288.83,10700.3C9462.33,11815.5 16907,11152.4 23688.8,9072.65C24502.6,10459.1 31706.3,21852.4 30862.4,37887.3L30862.3,37887.3L30862.3,37887.3L30862.3,37887.3ZM80052.2,19411.1C79690.5,19833.1 79057.6,19923.5 78605.4,19592C77068.3,18446.6 75350.2,18054.8 73360.9,18054.8C70497.6,18054.8 68930.2,18928.8 68930.2,20466C68930.2,22033.4 70346.8,22937.6 73481.5,23118.4C78062.9,23419.8 83880.1,24444.6 83880.1,30924.9C83880.1,35204.8 80383.7,38912.2 73421.2,38912.2C69804.3,38912.2 66187.4,38339.5 62841.8,35235C62450.1,34873.3 62389.7,34270.5 62691.2,33818.4L64409.2,31316.7C64770.9,30804.3 65494.3,30713.9 65976.5,31075.6C67935.7,32582.6 71160.7,33637.5 73481.6,33697.8C75742.1,33758.1 77882.1,32552.4 77882.1,30774.2C77882.1,29086.3 76495.6,28393 73059.6,28212.2C68478.2,27880.6 62992.6,26192.8 62992.6,20677C62992.6,15040.6 68809.7,13081.5 73240.4,13081.5C76616.2,13081.5 79268.6,13684.3 81800.4,15553C82312.8,15944.8 82403.2,16668.2 81981.3,17150.5L80052.2,19411.1L80052.2,19411.1L80052.2,19411.1ZM136717,28061.4C136355,28061.4 136084,28423.1 136204,28784.8C136898,31407.1 139429,33245.7 143318,33245.7C145217,33245.7 147628,32642.8 149135,31557.7C149557,31256.4 150129,31316.7 150521,31678.3L152842,33969.1C153294,34421.2 153264,35204.8 152752,35596.7C150160,37706.5 146482,38701.1 143197,38701.1C134818,38701.1 129845,33517 129845,25740.6C129845,18356.1 134878,13021.1 142775,13021.1C150642,13021.1 155645,17723.1 155133,27036.6C155103,27609.3 154620,28061.4 154048,28061.4L136717,28061.4L136717,28061.4ZM192326,25951.6C192326,32944.3 187533,38640.9 179636,38640.9C171739,38640.9 167007,32974.4 167007,25951.6C167007,18989 171830,13262.4 179576,13262.4C187352,13262.4 192326,18989.1 192326,25951.6L192326,25951.6L192326,25951.6ZM90209.6,13744.6L90209.6,13744.5C90812.4,13744.5 91294.7,14226.8 91294.7,14829.6L91294.7,26464C91294.7,29809.7 92952.4,32431.9 96087.1,32884C99945.1,33456.6 103351,30231.6 103351,26313.3L103351,14829.6C103351,14226.8 103833,13744.5 104436,13744.5L108234,13744.5C108837,13744.5 109319,14226.8 109319,14829.6L109319,37013.3C109319,37616.1 108837,38098.3 108234,38098.3L104918,38098.3C104376,38098.3 103893,37676.4 103833,37133.9L103562,34873.3C103562,34843.1 103502,34813 103502,34843.1C101000,37254.4 98709.3,38429.9 95333.5,38429.9C89516.3,38429.9 85266.5,34029.3 85266.5,26494.1L85266.5,14799.5C85266.5,14196.6 85748.8,13714.4 86351.6,13714.4L90209.7,13714.4L90209.7,13744.5L90209.6,13744.6ZM54673.8,38068.3C54070.9,38068.3 53588.7,37586.1 53588.7,36983.2L53588.7,25348.9C53588.7,22003.2 51931,19381 48796.3,18928.9C44938.3,18356.2 41532.4,21581.3 41532.4,25499.6L41532.4,36983.3C41532.4,37586.1 41050.1,38068.3 40447.3,38068.3L36649.6,38068.3C36046.8,38068.3 35564.5,37586.1 35564.5,36983.3L35564.5,14799.6C35564.5,14196.7 36046.8,13714.5 36649.6,13714.5L39965.1,13714.5C40507.6,13714.5 40989.9,14136.4 41050.1,14679L41321.4,16939.5C41321.4,16969.7 41381.7,16999.8 41381.7,16969.7C43823.1,14588.6 46264.6,13382.9 49308.7,13382.9C55035.5,13382.9 59616.9,17662.9 59616.9,25318.7L59616.9,36983.2C59616.9,37586.1 59134.6,38068.3 58531.8,38068.3L54673.9,38068.3L54673.9,38068.4L54673.8,38068.4L54673.8,38068.3ZM116733,13744.6C117276,13744.6 117728,14136.4 117818,14678.9L118120,16577.8C119989,13563.7 122520,13111.6 124962,13111.6C127072,13111.6 129121,13804.9 130508,14829.6C130930,15131.1 131080,15733.8 130809,16216.1L129091,19531.6C128820,20074.1 128097,20315.3 127584,19983.7C126650,19380.9 125655,19079.5 124178,19079.5C121013,19079.5 118120,20767.4 118120,25258.4L118120,36983.2C118120,37586 117638,38068.2 117035,38068.2L113207,38068.2C112604,38068.2 112122,37586 112122,36983.2L112122,14860C112122,14257.2 112604,13774.9 113207,13774.9L116733,13774.9L116733,13744.7L116733,13744.7L116733,13744.7L116733,13744.7L116733,13744.6ZM173035,25951.6C173035,29658.9 175266,33094.9 179636,33094.9C184037,33094.9 186237,29628.8 186237,25951.6C186237,22304.6 183675,18747.9 179636,18747.9C175296,18747.9 173035,22304.5 173035,25951.6ZM148743,23088.2C149014,23088.2 149255,22816.9 149195,22545.6C148592,19742.6 146211,18356.1 142986,18356.1C139942,18356.1 137440,19742.6 136385,22485.4C136265,22786.8 136506,23088.2 136837,23088.2L148743,23088.2L148743,23088.2L148743,23088.2ZM157815,6842.28C157815,9178.18 159594,10346.1 161372,10346.1C163150,10346.1 164928,9178.17 164928,6842.28C164898,2170.4 157815,2170.4 157815,6842.28L157815,6842.28ZM21940.2,4551.57C21940.2,7083.39 19890.6,9102.86 17388.9,9102.86C14857.1,9102.86 12837.6,7053.24 12837.6,4551.57C12837.6,2019.74 14887.3,0.28 17388.9,0.28C19890.6,-29.807 21940.2,2019.74 21940.2,4551.57Z" style="fill:rgb(29,80,158);"/>
    </g>
</svg>
