<?xml version="1.0" encoding="UTF-8" standalone="no"?>
<!DOCTYPE svg PUBLIC "-//W3C//DTD SVG 1.1//EN" "http://www.w3.org/Graphics/SVG/1.1/DTD/svg11.dtd">
<svg width="100%" height="100%" viewBox="0 0 512 512" version="1.1" xmlns="http://www.w3.org/2000/svg" xmlns:xlink="http://www.w3.org/1999/xlink" xml:space="preserve" xmlns:serif="http://www.serif.com/" style="fill-rule:evenodd;clip-rule:evenodd;stroke-linejoin:round;stroke-miterlimit:2;">
    <g>
        <g>
            <path d="M339.381,102.851c2.918,8.531 4.5,17.671 4.5,27.177c0,46.375 -37.65,84.024 -84.025,84.024c-46.374,0 -84.023,-37.649 -84.023,-84.024c-0,-46.374 37.649,-84.024 84.023,-84.024c8.64,-0 19.727,3.031 24.414,5.434c9.548,4.896 6.084,16.312 -1.793,15.326c-8.999,-1.127 -6.047,-5.53 -22.621,-5.754c-34.776,-0.472 -69.018,34.238 -69.018,69.018c0,34.781 34.238,68.019 69.018,68.019c34.781,-0 67.019,-33.238 67.019,-68.019c0,-9.728 -0.775,-14.279 -4.72,-22.512c-0,0 -4.166,-10.803 4.591,-14.232c8.02,-3.141 12.635,9.567 12.635,9.567Z" style="fill:#194ea0;"/>
        </g>
        <g>
            <path d="M268.316,97.907c1.259,1.26 2.184,2.645 2.772,4.157c0.673,1.68 1.175,3.318 1.512,4.914l16.505,-0l-5.797,8.693l-10.457,0c-0.502,3.444 -1.638,6.551 -3.402,9.323c-2.183,3.024 -4.452,5.292 -6.801,6.804c-2.186,1.764 -5.125,3.275 -8.821,4.535c-3.779,1.26 -7.224,1.89 -10.332,1.89l34.396,42.962l-14.866,0l-33.135,-41.576l0,-8.063l8.189,-0c4.2,-0 7.768,-0.504 10.71,-1.512c2.94,-1.176 5.249,-2.52 6.93,-4.032c1.846,-1.764 3.065,-3.486 3.653,-5.165c0.756,-1.932 1.133,-3.654 1.133,-5.166l-33.765,0l5.67,-8.693l26.962,-0c-0.925,-2.1 -2.184,-3.738 -3.781,-4.914c-1.428,-1.008 -3.191,-1.932 -5.292,-2.772c-3.696,-0.923 -5.879,-1.385 -6.55,-1.385l-17.009,-0l5.67,-8.694l56.695,0l-5.797,8.694l-14.992,-0Z" style="fill:#ef3d2d;fill-rule:nonzero;"/>
        </g>
        <g>
            <ellipse cx="310.732" cy="79.584" rx="10.577" ry="10.476" style="fill:#ef3d2d;"/>
        </g>
        <path d="M106.615,184.354c-0,-0 -0.025,66.229 29.289,95.759c27.902,28.107 62.881,34.949 81.022,17.24c18.14,-17.709 15.042,-50.849 -15.285,-81.414c-29.186,-29.413 -95.026,-31.585 -95.026,-31.585Zm13.478,13.739c-0,-0 4.619,52.235 25.529,74.297c20.709,21.85 47.262,27.088 60.391,14.271c13.13,-12.817 10.158,-37.405 -12.814,-60.717c-21.386,-21.702 -73.106,-27.851 -73.106,-27.851Z" style="fill:#194ea0;"/>
        <path d="M408.267,264.721c-0,0 -68.943,-1.089 -100.152,28.952c-29.707,28.594 -37.391,64.896 -19.247,84.064c18.143,19.168 52.69,16.475 84.993,-14.604c31.088,-29.909 34.406,-98.412 34.406,-98.412Zm-14.519,13.81c0,0 -54.449,3.97 -77.75,25.382c-23.078,21.207 -28.957,48.763 -15.826,62.636c13.132,13.873 38.775,11.175 63.411,-12.364c22.934,-21.914 30.165,-75.654 30.165,-75.654Z" style="fill:#194ea0;"/>
        <g>
            <path d="M350.042,439.173c-0,-4.386 -3.561,-7.946 -7.946,-7.946l-166.257,-0c-4.385,-0 -7.946,3.56 -7.946,7.946c0,4.385 3.561,7.946 7.946,7.946l166.257,-0c4.385,-0 7.946,-3.561 7.946,-7.946Z" style="fill:#194ea0;"/>
        </g>
        <g>
            <path d="M258.967,199.016c-4.385,-0 -7.945,3.56 -7.945,7.946l-0,229.84c-0,4.386 3.56,7.946 7.945,7.946c4.386,0 7.946,-3.56 7.946,-7.946l0,-229.84c0,-4.386 -3.56,-7.946 -7.946,-7.946Z" style="fill:#194ea0;"/>
        </g>
        <g>
            <path d="M259.487,326.733c2.897,-3.291 2.577,-8.316 -0.714,-11.214l-73.733,-64.907c-3.292,-2.897 -8.317,-2.578 -11.215,0.714c-2.898,3.292 -2.578,8.317 0.714,11.215l73.733,64.906c3.292,2.898 8.317,2.578 11.215,-0.714Z" style="fill:#194ea0;"/>
        </g>
        <g>
            <path d="M256.637,418.021c-3.221,-2.976 -3.421,-8.007 -0.445,-11.228l66.659,-72.153c2.976,-3.221 8.007,-3.421 11.228,-0.445c3.222,2.976 3.421,8.008 0.445,11.229l-66.659,72.153c-2.976,3.221 -8.007,3.42 -11.228,0.444Z" style="fill:#194ea0;"/>
        </g>
    </g>
</svg>
