<svg id="Layer_1" data-name="Layer 1" xmlns="http://www.w3.org/2000/svg" viewBox="0 0 29 29"><defs><style>.cls-1{fill:#00b8f1;}.cls-2{fill:#194ea0;}</style></defs><path class="cls-1" d="M14.5,2.9A.48.48,0,0,0,15,2.42V.48a.48.48,0,0,0-1,0V2.42A.48.48,0,0,0,14.5,2.9Z"/><path class="cls-1" d="M8.52,2.21l1,1.68a.48.48,0,1,0,.84-.48h0l-1-1.67a.48.48,0,0,0-.84.48Z"/><path class="cls-1" d="M4.63,6.46h0l1.68,1a.48.48,0,1,0,.48-.84h0l-1.68-1a.48.48,0,1,0-.48.84Z"/><path class="cls-1" d="M5.8,11.6a.48.48,0,0,0-.48-.48H3.38a.48.48,0,1,0,0,1H5.32A.48.48,0,0,0,5.8,11.6Z"/><path class="cls-1" d="M6.31,15.77h0l-1.68,1a.48.48,0,0,0,.48.84h0l1.68-1a.48.48,0,1,0-.48-.84Z"/><path class="cls-1" d="M24.37,16.74h0l-1.68-1a.48.48,0,1,0-.48.84h0l1.68,1a.48.48,0,0,0,.48-.84Z"/><path class="cls-1" d="M25.62,11.12H23.68a.48.48,0,0,0,0,1h1.94a.48.48,0,0,0,0-1Z"/><path class="cls-1" d="M22.45,7.49a.54.54,0,0,0,.25-.06l1.67-1a.48.48,0,1,0-.48-.84h0l-1.68,1a.48.48,0,0,0-.17.66A.46.46,0,0,0,22.45,7.49Z"/><path class="cls-1" d="M18.85,4.07h0a.49.49,0,0,0,.66-.18h0l1-1.68a.48.48,0,0,0-.84-.48h0l-1,1.67A.5.5,0,0,0,18.85,4.07Z"/><path class="cls-1" d="M15.47,19.33a.48.48,0,0,0,.48-.48V13.53h1A1.93,1.93,0,1,0,15,11.6v1H14v-1a1.94,1.94,0,1,0-1.94,1.93h1v5.32a.49.49,0,0,0,1,0V13.53h1v5.32A.48.48,0,0,0,15.47,19.33ZM16,11.6a1,1,0,1,1,1,1H16Zm-2.9,1h-1a1,1,0,1,1,1-1Z"/><path class="cls-2" d="M14.88,3.88A7.73,7.73,0,0,0,9.6,17.58a1.43,1.43,0,0,1,.55,1.1v1.14a1.45,1.45,0,0,0,1,1.36v.57a1.45,1.45,0,0,0,.37,1,1.43,1.43,0,0,0,0,1.93,1.45,1.45,0,0,0,1.08,2.42.48.48,0,0,0,.48-.46.52.52,0,0,0-.09-.29.35.35,0,0,0-.05-.08.51.51,0,0,0-.13-.09l0,0-.15,0h0a.49.49,0,1,1,0-1H14.5a.48.48,0,1,0,0-1H12.57a.49.49,0,1,1,0-1H14.5a.49.49,0,0,0,0-1H12.57a.48.48,0,0,1-.49-.48v-.48H14.5a.49.49,0,0,0,0-1H11.6a.48.48,0,0,1-.48-.48V18.68a2.4,2.4,0,0,0-.91-1.85,6.77,6.77,0,0,1,4.62-12,6.85,6.85,0,0,1,6.44,6.72,6.76,6.76,0,0,1-2.51,5.3,2.36,2.36,0,0,0-.88,1.88v1.08a.48.48,0,0,1-.48.48H16a.49.49,0,0,0,0,1h1v.48a.48.48,0,0,1-.49.48H16a.49.49,0,0,0,0,1h.48a.49.49,0,1,1,0,1H16a.48.48,0,0,0,0,1h.48a.49.49,0,1,1,0,1H14a.49.49,0,1,0,0,1h1.85a1.45,1.45,0,0,1-2.45.48.49.49,0,0,0-.73.64,2.41,2.41,0,0,0,3.41.2,2.46,2.46,0,0,0,.78-1.4,1.45,1.45,0,0,0,.94-1.8,1.62,1.62,0,0,0-.31-.54,1.43,1.43,0,0,0,0-1.93,1.45,1.45,0,0,0,.37-1v-.57a1.45,1.45,0,0,0,1-1.36V18.74a1.43,1.43,0,0,1,.51-1.13,7.67,7.67,0,0,0,2.87-6.06A7.81,7.81,0,0,0,14.88,3.88Z"/></svg>