<?xml version="1.0" encoding="UTF-8" standalone="no"?>
<!DOCTYPE svg PUBLIC "-//W3C//DTD SVG 1.1//EN" "http://www.w3.org/Graphics/SVG/1.1/DTD/svg11.dtd">
<svg width="100%" height="100%" viewBox="0 0 383 469" version="1.1" xmlns="http://www.w3.org/2000/svg" xmlns:xlink="http://www.w3.org/1999/xlink" xml:space="preserve" xmlns:serif="http://www.serif.com/" style="fill-rule:evenodd;clip-rule:evenodd;stroke-linejoin:round;stroke-miterlimit:2;">
    <path d="M201.477,65.627C196.677,67.027 191.677,72.127 190.377,77.027C189.777,79.227 189.177,88.927 188.977,98.527C188.677,117.827 188.177,120.427 182.577,132.627C180.477,137.227 177.077,145.427 175.077,150.827C170.977,161.927 167.477,169.127 163.477,175.027C158.977,181.627 146.077,195.427 135.477,205.027C120.577,218.527 105.077,238.427 98.877,252.027C95.677,259.027 92.877,272.527 90.977,290.027C90.077,298.227 88.677,307.527 87.777,310.427C86.077,316.727 81.577,326.027 77.177,332.427C69.577,343.527 48.377,363.127 21.477,383.927C-2.823,402.727 -0.723,400.627 0.877,405.327C3.177,411.827 5.477,415.627 11.177,422.827C27.777,443.527 64.977,465.927 86.477,468.227C91.977,468.727 92.077,468.727 95.377,464.927C97.277,462.727 105.977,453.127 114.877,443.527C123.777,433.927 135.427,421.375 140.727,415.375C146.027,409.275 152.177,402.227 154.377,400.027L158.297,395.982L170.977,396.427C188.877,396.827 194.577,394.827 220.077,379.427C236.277,369.627 264.577,355.227 272.577,352.627C280.377,350.027 293.777,342.627 298.177,338.327C299.877,336.627 304.19,331.324 304.589,326.403C308.369,323.747 310.86,321.354 312.205,319.446C315.73,314.441 317.584,306.162 313.477,292.427C310.677,278.627 309.177,264.927 309.977,258.627C311.377,246.027 317.577,226.727 325.677,209.727C328.477,203.827 334.977,189.327 340.177,177.527C352.077,150.627 352.177,150.427 366.677,124.827C380.077,101.127 384.177,91.227 382.077,88.027C379.477,83.927 373.727,81.257 364.027,81.257C353.327,81.257 348.477,83.927 339.977,91.727C332.577,98.427 327.177,106.827 323.877,116.727C321.677,123.527 320.077,126.327 314.677,132.527C310.977,136.727 306.777,143.127 304.777,147.227C303.688,149.46 302.796,152.179 301.323,154.644C299.023,153.244 290.659,143.228 286.877,134.527C282.277,125.227 275.177,115.427 266.077,106.027C261.277,101.027 252.077,91.027 245.777,83.627C239.377,76.327 232.777,69.427 231.077,68.427C227.577,66.327 223.677,66.027 220.177,67.627C218.277,68.427 217.077,68.427 214.877,67.227C210.677,65.027 205.577,64.427 201.477,65.627ZM212.777,70.427C213.677,71.327 213.577,72.027 212.677,73.327C209.777,77.327 207.077,84.427 206.677,89.227C205.677,100.527 213.177,115.727 224.477,125.527C231.177,131.327 231.477,132.527 229.377,144.127C228.177,150.527 212.577,194.627 211.177,195.627C210.677,196.027 207.577,196.527 204.277,196.927C200.977,197.227 191.677,199.727 183.677,202.427C175.577,205.127 165.377,207.827 160.977,208.427C144.677,210.627 136.777,217.727 137.777,229.127C138.077,231.927 139.277,236.127 140.377,238.327C142.377,242.227 148.077,247.527 150.277,247.527C150.877,247.527 151.877,249.127 152.477,251.027C154.677,257.727 164.977,264.127 175.277,265.227C178.077,265.527 180.477,266.127 180.477,266.427C180.477,266.727 176.577,269.427 171.777,272.427C152.977,284.227 139.777,297.727 132.177,313.027C128.343,320.788 124.83,330.471 124.574,333.89C124.559,334.095 123.789,337.395 126.087,337.478C127.517,337.53 127.835,335.985 128.577,333.327C130.877,324.927 134.577,315.927 138.277,309.527C146.277,295.827 164.977,279.627 184.077,269.827C192.877,265.327 217.877,254.227 221.277,253.327C222.077,253.127 223.377,255.627 224.877,259.827C226.077,263.527 228.377,267.927 229.977,269.527L232.677,272.427L230.077,277.627C228.377,281.127 227.477,284.527 227.477,287.727C227.477,295.027 231.577,303.527 235.177,303.527C236.977,303.527 236.777,301.827 234.477,298.627C230.077,292.327 230.477,281.327 235.377,276.227C236.477,274.927 237.477,273.627 237.477,273.327C237.477,273.027 235.777,270.627 233.577,268.027C229.677,263.227 228.077,259.427 226.977,251.427L226.277,246.827L213.677,252.227C194.377,260.527 190.177,261.727 180.577,261.727C172.977,261.727 171.577,261.427 165.677,258.327C161.177,256.127 158.477,253.927 157.077,251.627L155.177,248.327L157.477,249.027C160.677,250.027 170.277,247.827 176.077,244.627C180.377,242.327 181.077,241.527 181.477,238.227C182.077,233.827 183.077,233.127 202.477,224.227C213.677,219.127 214.177,219.027 222.977,219.127C241.777,219.327 264.877,228.027 271.177,237.427C273.277,240.527 273.477,241.727 273.277,255.927C273.177,273.227 274.577,280.027 281.377,295.327C286.777,307.227 288.477,314.327 288.477,324.727C288.477,340.027 285.777,343.727 271.177,349.127C258.277,353.827 236.477,365.127 215.477,377.927C193.377,391.427 182.777,394.527 165.677,392.627C148.877,390.827 140.877,387.327 131.177,377.227C128.987,374.993 127.737,373.26 126.818,371.999C125.364,370.006 123.587,370.388 122.959,370.983C122.146,371.752 122.205,373.018 123.444,374.648C125.555,377.425 129.467,381.778 133.151,384.751C137.351,388.051 142.892,391.232 146.769,392.587C147.43,392.819 151.969,394.38 153.368,394.874C151.874,396.529 151.176,397.859 149.385,399.568C147.185,401.668 142.639,406.496 138.739,410.896C127.039,424.196 93.877,460.927 91.677,462.927C82.977,470.627 34.377,444.827 15.577,422.527C9.977,415.827 4.477,406.727 4.477,403.927C4.477,402.327 7.377,399.527 15.777,393.327C54.877,363.827 76.577,342.727 85.377,325.527C91.577,313.427 92.177,311.427 94.477,291.527C96.777,271.427 99.477,259.427 103.577,251.227C109.977,238.527 124.877,219.527 137.077,208.827C153.577,194.127 166.577,179.127 172.077,168.227C173.477,165.627 176.477,158.127 178.977,151.527C181.477,144.927 184.577,137.227 186.077,134.327C191.377,123.927 191.677,122.027 192.477,99.827C193.277,76.127 193.977,73.627 200.477,70.227C204.177,68.327 210.777,68.427 212.777,70.427ZM221.177,84.127C224.077,88.127 230.577,94.027 234.377,95.927C238.377,98.027 240.677,97.927 244.977,95.427L248.577,93.327L260.277,105.527C274.077,120.027 276.777,123.527 284.277,137.927C288.877,146.727 291.777,150.727 299.577,158.927C305.577,165.427 310.177,171.327 312.077,175.027C314.677,180.427 314.977,181.927 314.877,190.527C314.677,200.227 313.177,210.327 308.977,228.027C304.377,247.427 304.777,268.227 309.977,294.027C311.529,303.858 313.7,307.52 310.717,313.871C307.743,320.625 302.835,321.928 301.115,323.703C301.115,326.303 299.569,331.991 294.877,336.427C292.769,338.091 291.934,338.516 290.941,338.783C291.211,337.653 291.569,336.489 291.677,334.727C293.077,329.827 292.077,313.527 289.977,306.527C288.977,303.527 286.477,297.127 284.377,292.427C277.977,278.227 276.977,273.027 277.177,256.527C277.377,248.427 276.977,240.627 276.377,238.827C274.677,233.527 265.577,226.127 256.677,222.727C241.777,216.927 225.177,214.027 215.877,215.627C213.177,216.027 204.477,219.427 196.477,223.127C179.277,231.027 173.877,233.027 166.577,233.927C159.677,234.827 155.977,237.027 153.977,241.227C152.377,244.427 152.277,244.527 149.477,243.027C145.677,241.027 142.477,235.627 141.877,229.827C141.177,224.327 143.521,220.092 144.34,218.943C144.367,221.997 144.799,226.372 146.932,228.28C148.832,229.98 151.328,230.122 157.428,229.022C164.028,227.822 172.06,224.025 173.962,220.804C175.133,218.819 174.763,212.028 174.493,209.749C175.597,209.44 176.521,209.154 177.777,208.627C196.077,201.327 206.777,199.227 217.477,200.727C222.277,201.327 229.677,201.427 237.977,200.927C245.177,200.527 257.277,200.127 264.977,200.027C285.977,200.027 286.577,200.627 292.977,225.527C296.277,238.727 296.677,241.827 297.477,260.027C297.977,271.027 298.777,282.027 299.377,284.527C299.877,287.027 300.677,290.727 300.977,292.727C301.277,294.827 302.177,296.527 302.877,296.527C304.977,296.527 305.177,295.727 304.477,291.227C301.977,276.827 301.377,271.127 300.577,254.527C299.577,235.727 297.477,224.027 292.477,209.927C288.777,199.327 282.277,195.527 267.677,195.527C263.677,195.527 260.477,195.227 260.677,194.727C260.877,194.327 262.077,191.227 263.477,187.727C265.377,183.027 266.377,181.627 267.477,182.227C268.277,182.627 270.777,182.927 272.977,182.927C275.977,183.027 276.977,182.627 277.277,181.227C277.577,179.827 276.877,179.527 273.377,179.527C269.777,179.527 268.677,178.927 265.577,175.727C263.577,173.627 260.377,169.227 258.477,165.927C256.577,162.727 252.177,156.027 248.677,151.127C245.277,146.227 241.077,139.327 239.377,135.927C237.477,131.827 235.277,128.927 233.177,127.627C231.477,126.527 227.177,122.827 223.777,119.327C212.277,107.627 207.477,91.527 212.477,81.427C213.677,79.027 215.477,76.227 216.377,75.127C217.877,73.427 217.977,73.527 218.477,77.227C218.777,79.327 220.077,82.527 221.177,84.127ZM177.877,236.427C179.677,239.227 172.777,243.227 163.277,245.027C159.277,245.827 158.277,244.927 159.177,241.727C159.777,239.427 164.577,237.727 176.677,235.627C177.077,235.627 177.577,235.927 177.877,236.427ZM374.577,87.227C376.677,88.027 378.577,89.227 378.777,89.927C379.577,92.027 375.177,101.727 366.377,117.427C361.877,125.427 356.077,135.627 353.677,140.027C351.177,144.427 343.477,160.827 336.477,176.527C318.777,216.027 315.389,223.713 313.797,226.642C314.189,222.683 315.377,216.927 316.477,210.627C317.577,204.427 318.477,194.927 318.477,189.627C318.477,178.427 316.477,173.027 308.877,163.327L304.477,157.727L305.977,153.427C308.377,146.827 311.777,141.527 318.277,134.327C322.977,129.227 324.777,126.227 326.477,120.927C329.877,110.627 334.377,102.727 340.477,96.427C351.177,85.527 362.677,82.427 374.577,87.227ZM170.183,217.412C169.583,220.512 164.677,222.927 156.077,224.727C149.677,226.127 148.233,225.219 148.267,220.119C148.31,213.79 156.36,212.73 156.714,212.673C160.311,212.095 167.228,211.277 170.295,211.373C170.773,212.112 170.662,214.938 170.183,217.412ZM245.477,153.227C247.677,156.127 251.277,161.527 253.577,165.227C255.877,169.027 258.877,173.727 260.277,175.727L262.677,179.527L259.477,187.527C256.477,195.027 256.077,195.527 252.577,196.227C247.877,197.227 217.877,197.227 216.877,196.227C215.977,195.427 216.077,195.027 225.177,170.127C228.977,159.727 232.077,149.127 232.677,145.127C234.077,134.427 234.277,134.327 238.077,141.527C239.977,145.127 243.277,150.427 245.477,153.227ZM143.184,137.298C142.623,136.387 141.429,136.103 140.519,136.663L123.887,146.897C122.977,147.457 122.693,148.651 123.253,149.561C123.813,150.471 125.006,150.756 125.917,150.196L142.548,139.962C143.459,139.402 143.743,138.207 143.184,137.298ZM229.877,72.127C230.677,72.427 234.677,76.527 238.677,81.227L245.877,89.727L243.577,91.627C242.277,92.727 240.477,93.527 239.477,93.527C234.377,93.527 220.877,80.027 222.077,76.127C223.377,71.827 225.877,70.527 229.877,72.127ZM163.368,79.956C163.686,78.935 163.114,77.849 162.093,77.532L143.445,71.738C142.424,71.421 141.338,71.992 141.021,73.013C140.704,74.033 141.275,75.119 142.296,75.436L160.944,81.23C161.965,81.547 163.052,80.976 163.368,79.956ZM291.188,75.504C291.582,76.498 292.709,76.985 293.703,76.591L311.858,69.398C312.852,69.004 313.338,67.878 312.944,66.884C312.551,65.891 311.425,65.404 310.431,65.798L292.276,72.99C291.282,73.384 290.795,74.511 291.188,75.504ZM133.247,70.806C133.565,69.785 132.993,68.699 131.972,68.382L113.324,62.588C112.303,62.271 111.217,62.842 110.9,63.863C110.583,64.883 111.154,65.969 112.175,66.286L130.823,72.08C131.844,72.397 132.931,71.826 133.247,70.806ZM236.808,51.959C237.78,52.404 238.93,51.976 239.375,51.004L247.505,33.249C247.95,32.277 247.522,31.127 246.55,30.682C245.579,30.238 244.429,30.665 243.984,31.637L235.854,49.392C235.409,50.364 235.837,51.514 236.808,51.959ZM249.733,23.255C250.705,23.7 251.855,23.272 252.3,22.3L260.43,4.545C260.875,3.573 260.447,2.423 259.475,1.978C258.504,1.534 257.354,1.961 256.909,2.933L248.779,20.688C248.334,21.66 248.762,22.81 249.733,23.255ZM182.389,21.348C183.355,20.891 183.77,19.736 183.314,18.769L174.978,1.109C174.522,0.143 173.367,-0.271 172.4,0.185C171.435,0.641 171.02,1.796 171.476,2.762L179.811,20.422C180.267,21.389 181.423,21.803 182.389,21.348Z" style="fill:rgb(234,246,253);fill-rule:nonzero;"/>
</svg>
