<?xml version="1.0" encoding="UTF-8" standalone="no"?>
<!DOCTYPE svg PUBLIC "-//W3C//DTD SVG 1.1//EN" "http://www.w3.org/Graphics/SVG/1.1/DTD/svg11.dtd">
<svg width="100%" height="100%" viewBox="0 0 1558 400" version="1.1" xmlns="http://www.w3.org/2000/svg" xmlns:xlink="http://www.w3.org/1999/xlink" xml:space="preserve" xmlns:serif="http://www.serif.com/" style="fill-rule:evenodd;clip-rule:evenodd;stroke-linejoin:round;stroke-miterlimit:2;">
    <g transform="matrix(1,0,0,1,0.0425415,0.847046)">
        <path d="M1445.88,158.252C1445.88,158.252 1467.08,120.149 1497.41,115.652C1528.88,110.986 1552.01,132.215 1556.36,163.127C1560.7,194.04 1547.8,250.543 1511.47,288.123C1495.34,289.942 1414.98,290.475 1376.99,242.141C1354.77,209.994 1369.64,187.356 1375.39,180.71C1388.26,165.831 1405.76,156.203 1445.88,158.252ZM1448.01,161.274C1448.01,161.274 1470.86,122.186 1497.23,118.281C1526.65,113.927 1549.35,134.372 1553.57,164.342C1557.78,194.312 1541.59,252.914 1510.28,285.201C1500.68,286.4 1419.4,289.505 1379.9,240.621C1359.93,213.071 1370.87,191.096 1376.11,184.381C1389.82,166.829 1410.43,158.474 1448.01,161.274Z" style="fill:rgb(234,246,253);"/>
    </g>
    <g transform="matrix(0.399958,0.558185,-0.558185,0.399958,587.652,-839.757)">
        <path d="M1445.88,158.252C1445.88,158.252 1467.08,120.149 1497.41,115.652C1528.88,110.986 1552.01,132.215 1556.36,163.127C1560.7,194.04 1547.8,250.543 1511.47,288.123C1495.34,289.942 1414.98,290.475 1376.99,242.141C1354.77,209.994 1369.64,187.356 1375.39,180.71C1388.26,165.831 1405.76,156.203 1445.88,158.252ZM1448.01,161.274C1448.01,161.274 1470.86,122.186 1497.23,118.281C1526.65,113.927 1549.35,134.372 1553.57,164.342C1557.78,194.312 1541.59,252.914 1510.28,285.201C1500.68,286.4 1419.4,289.505 1379.9,240.621C1359.93,213.071 1370.87,191.096 1376.11,184.381C1389.82,166.829 1410.43,158.474 1448.01,161.274Z" style="fill:rgb(234,246,253);"/>
    </g>
    <g transform="matrix(0.632668,-0.00774493,0.00774493,0.632668,-470.054,-46.2945)">
        <path d="M1445.88,158.252C1445.88,158.252 1467.08,120.149 1497.41,115.652C1528.88,110.986 1552.01,132.215 1556.36,163.127C1560.7,194.04 1547.8,250.543 1511.47,288.123C1495.34,289.942 1414.98,290.475 1376.99,242.141C1354.77,209.994 1369.64,187.356 1375.39,180.71C1388.26,165.831 1405.76,156.203 1445.88,158.252ZM1448.01,161.274C1448.01,161.274 1470.86,122.186 1497.23,118.281C1526.65,113.927 1549.35,134.372 1553.57,164.342C1557.78,194.312 1541.59,252.914 1510.28,285.201C1500.68,286.4 1419.4,289.505 1379.9,240.621C1359.93,213.071 1370.87,191.096 1376.11,184.381C1389.82,166.829 1410.43,158.474 1448.01,161.274Z" style="fill:rgb(234,246,253);"/>
    </g>
    <g transform="matrix(0.320468,0.545554,-0.545554,0.320468,-14.8133,-519.769)">
        <path d="M1445.88,158.252C1445.88,158.252 1467.08,120.149 1497.41,115.652C1528.88,110.986 1552.01,132.215 1556.36,163.127C1560.7,194.04 1547.8,250.543 1511.47,288.123C1495.34,289.942 1414.98,290.475 1376.99,242.141C1354.77,209.994 1369.64,187.356 1375.39,180.71C1388.26,165.831 1405.76,156.203 1445.88,158.252ZM1448.01,161.274C1448.01,161.274 1470.86,122.186 1497.23,118.281C1526.65,113.927 1549.35,134.372 1553.57,164.342C1557.78,194.312 1541.59,252.914 1510.28,285.201C1500.68,286.4 1419.4,289.505 1379.9,240.621C1359.93,213.071 1370.87,191.096 1376.11,184.381C1389.82,166.829 1410.43,158.474 1448.01,161.274Z" style="fill:rgb(234,246,253);"/>
    </g>
    <g transform="matrix(0.214233,0.345605,-0.345605,0.214233,-207.448,-286.147)">
        <path d="M1445.88,158.252C1445.88,158.252 1467.08,120.149 1497.41,115.652C1528.88,110.986 1552.01,132.215 1556.36,163.127C1560.7,194.04 1547.8,250.543 1511.47,288.123C1495.34,289.942 1414.98,290.475 1376.99,242.141C1354.77,209.994 1369.64,187.356 1375.39,180.71C1388.26,165.831 1405.76,156.203 1445.88,158.252ZM1448.01,161.274C1448.01,161.274 1470.86,122.186 1497.23,118.281C1526.65,113.927 1549.35,134.372 1553.57,164.342C1557.78,194.312 1541.59,252.914 1510.28,285.201C1500.68,286.4 1419.4,289.505 1379.9,240.621C1359.93,213.071 1370.87,191.096 1376.11,184.381C1389.82,166.829 1410.43,158.474 1448.01,161.274Z" style="fill:rgb(234,246,253);"/>
    </g>
</svg>
